<svg width="600" height="300"><circle r="0" cx="250.9744308023878" cy="110.25046672112074" style="fill: rgb(31, 119, 180);"><title>Adam</title></circle><circle r="3" cx="308.6603381203486" cy="117.15524192686617" style="fill: rgb(255, 127, 14);"><title>Bob</title></circle><circle r="6" cx="313.88266040076627" cy="78.66599331418003" style="fill: rgb(44, 160, 44);"><title>Carrie</title></circle><circle r="9" cx="219.04510802154815" cy="160.88285314457653" style="fill: rgb(214, 39, 40);"><title>Donovan</title></circle><circle r="12" cx="192.28633919318057" cy="117.77743523748158" style="fill: rgb(148, 103, 189);"><title>Edward</title></circle><circle r="15" cx="367.303990172719" cy="104.27080996442791" style="fill: rgb(140, 86, 75);"><title>Felicity</title></circle><circle r="18" cx="296.66565048648823" cy="263.7771831191789" style="fill: rgb(227, 119, 194);"><title>George</title></circle><circle r="21" cx="340.5353748434943" cy="229.18190751053913" style="fill: rgb(127, 127, 127);"><title>Hannah</title></circle><circle r="24" cx="373.83750072105755" cy="174.62767966915237" style="fill: rgb(188, 189, 34);"><title>Iris</title></circle><circle r="27" cx="336.8170141086087" cy="143.40278027276094" style="fill: rgb(23, 190, 207);"><title>Jerry</title></circle><line x1="250.9744308023878" y1="110.25046672112074" x2="308.6603381203486" y2="117.15524192686617" style="stroke: rgb(31, 119, 180); stroke-width: 1;"></line><line x1="250.9744308023878" y1="110.25046672112074" x2="313.88266040076627" y2="78.66599331418003" style="stroke: rgb(255, 127, 14); stroke-width: 1;"></line><line x1="250.9744308023878" y1="110.25046672112074" x2="219.04510802154815" y2="160.88285314457653" style="stroke: rgb(44, 160, 44); stroke-width: 1;"></line><line x1="250.9744308023878" y1="110.25046672112074" x2="192.28633919318057" y2="117.77743523748158" style="stroke: rgb(214, 39, 40); stroke-width: 1;"></line><line x1="308.6603381203486" y1="117.15524192686617" x2="367.303990172719" y2="104.27080996442791" style="stroke: rgb(148, 103, 189); stroke-width: 1;"></line><line x1="313.88266040076627" y1="78.66599331418003" x2="367.303990172719" y2="104.27080996442791" style="stroke: rgb(140, 86, 75); stroke-width: 1;"></line><line x1="313.88266040076627" y1="78.66599331418003" x2="367.303990172719" y2="104.27080996442791" style="stroke: rgb(227, 119, 194); stroke-width: 1;"></line><line x1="219.04510802154815" y1="160.88285314457653" x2="192.28633919318057" y2="117.77743523748158" style="stroke: rgb(127, 127, 127); stroke-width: 1;"></line><line x1="367.303990172719" y1="104.27080996442791" x2="373.83750072105755" y2="174.62767966915237" style="stroke: rgb(188, 189, 34); stroke-width: 1;"></line><line x1="367.303990172719" y1="104.27080996442791" x2="336.8170141086087" y2="143.40278027276094" style="stroke: rgb(23, 190, 207); stroke-width: 1;"></line><line x1="296.66565048648823" y1="263.7771831191789" x2="340.5353748434943" y2="229.18190751053913" style="stroke: rgb(31, 119, 180); stroke-width: 1;"></line><line x1="340.5353748434943" y1="229.18190751053913" x2="373.83750072105755" y2="174.62767966915237" style="stroke: rgb(255, 127, 14); stroke-width: 1;"></line><line x1="373.83750072105755" y1="174.62767966915237" x2="336.8170141086087" y2="143.40278027276094" style="stroke: rgb(44, 160, 44); stroke-width: 1;"></line></svg>